<?xml version="1.0" standalone="no"?>
<!DOCTYPE svg PUBLIC "-//W3C//DTD SVG 20010904//EN"
 "http://www.w3.org/TR/2001/REC-SVG-20010904/DTD/svg10.dtd">
<svg version="1.0" xmlns="http://www.w3.org/2000/svg"
 width="71.000000pt" height="69.000000pt" viewBox="0 0 71.000000 69.000000"
 preserveAspectRatio="xMidYMid meet">
<metadata>
Created by potrace 1.10, written by Peter Selinger 2001-2011
</metadata>
<g transform="translate(0.000000,69.000000) scale(0.100000,-0.100000)"
fill="#000000" stroke="none">
<path d="M201 553 c-36 -37 -141 -225 -141 -253 0 -12 33 -76 72 -143 l73
-121 5 131 5 132 77 55 77 55 26 -21 c31 -24 28 -26 94 77 l51 80 -21 18 c-18
14 -42 17 -156 17 -134 0 -135 0 -162 -27z m276 -16 c11 -12 -37 -96 -58 -102
-11 -4 -27 -4 -38 0 -12 4 -43 -11 -92 -44 -99 -66 -109 -79 -116 -145 -3 -31
-10 -56 -14 -56 -11 0 -59 94 -59 114 0 8 14 38 30 66 17 28 30 53 30 55 0 3
14 27 31 55 21 35 40 53 62 60 36 11 212 8 224 -3z"/>
<path d="M518 453 c-19 -32 -42 -70 -51 -84 -15 -23 -16 -27 -3 -32 16 -6 115
140 108 161 -7 23 -20 12 -54 -45z"/>
<path d="M564 408 c-15 -24 -35 -55 -45 -69 -15 -22 -16 -29 -6 -38 11 -8 23
4 55 55 44 69 48 79 32 89 -5 3 -21 -14 -36 -37z"/>
<path d="M578 314 c-31 -48 -48 -87 -48 -106 0 -28 5 -22 51 53 28 46 54 88
59 93 9 9 2 36 -9 36 -3 0 -27 -34 -53 -76z"/>
<path d="M596 226 c-55 -86 -66 -111 -66 -146 l0 -43 70 116 c38 64 72 127 75
140 15 56 -16 30 -79 -67z"/>
<path d="M363 223 c-8 -3 -13 -24 -13 -55 0 -45 2 -49 21 -46 17 2 22 11 23
46 2 43 -9 63 -31 55z"/>
</g>
</svg>
